<svg width="72" height="72" viewBox="0 0 72 72" fill="none" xmlns="http://www.w3.org/2000/svg">
<circle cx="36" cy="36" r="36" fill="#B4BDE1"/>
<g clip-path="url(#clip0)">
<path d="M61.6858 34.6883C56.79 25.1819 47.0978 18.75 35.9999 18.75C24.9021 18.75 15.2072 25.1864 10.3141 34.6892C10.1076 35.0957 10 35.5449 10 36.0004C10 36.456 10.1076 36.9052 10.3141 37.3117C15.2099 46.8181 24.9021 53.25 35.9999 53.25C47.0978 53.25 56.7927 46.8136 61.6858 37.3108C61.8923 36.9043 61.9999 36.4551 61.9999 35.9996C61.9999 35.544 61.8923 35.0948 61.6858 34.6883V34.6883ZM35.9999 48.9375C33.4288 48.9375 30.9154 48.1787 28.7775 46.7571C26.6397 45.3355 24.9735 43.315 23.9895 40.951C23.0056 38.5869 22.7481 35.9856 23.2497 33.476C23.7513 30.9664 24.9895 28.6611 26.8076 26.8518C28.6256 25.0425 30.942 23.8103 33.4638 23.3111C35.9855 22.8119 38.5994 23.0681 40.9748 24.0473C43.3503 25.0265 45.3806 26.6847 46.8091 28.8123C48.2375 30.9399 48.9999 33.4412 48.9999 36C49.0008 37.6992 48.6651 39.3819 48.0121 40.9519C47.3591 42.522 46.4015 43.9485 45.1942 45.15C43.9869 46.3516 42.5534 47.3045 40.9758 47.9544C39.3982 48.6043 37.7074 48.9383 35.9999 48.9375V48.9375ZM35.9999 27.375C35.2264 27.3858 34.4578 27.5003 33.715 27.7155C34.3273 28.5436 34.6211 29.5626 34.5432 30.5878C34.4653 31.6129 34.0207 32.5764 33.2903 33.3033C32.5598 34.0303 31.5917 34.4727 30.5616 34.5502C29.5314 34.6278 28.5075 34.3354 27.6754 33.7261C27.2016 35.4633 27.2872 37.3046 27.92 38.9909C28.5528 40.6772 29.7011 42.1235 31.2031 43.1264C32.7052 44.1292 34.4855 44.638 36.2933 44.5812C38.1012 44.5243 39.8456 43.9047 41.2811 42.8095C42.7166 41.7144 43.7708 40.1988 44.2954 38.4761C44.82 36.7534 44.7886 34.9104 44.2056 33.2064C43.6225 31.5024 42.5172 30.0233 41.0452 28.9772C39.5733 27.9311 37.8087 27.3708 35.9999 27.375V27.375Z" fill="#041E85"/>
</g>
<defs>
<clipPath id="clip0">
<rect width="52" height="46" fill="white" transform="translate(10 13)"/>
</clipPath>
</defs>
</svg>
