<svg width="72" height="72" viewBox="0 0 72 72" fill="none" xmlns="http://www.w3.org/2000/svg">
<circle cx="36" cy="36" r="36" fill="#B4BDE1"/>
<g clip-path="url(#clip0)">
<path d="M54.1669 40.2713C51.9652 42.0581 49.5412 43.5391 46.9124 44.5823L51.6919 52.8607L56.4336 54.8857C57.2958 55.254 58.2696 54.6915 58.3821 53.7607L58.9991 48.6411L54.1669 40.2713ZM57.9014 31.9604C58.3285 31.2862 58.0675 30.3792 57.3696 29.9925L54.9025 28.624C54.2451 28.2593 53.4427 28.4957 53.034 29.1268C49.4208 34.7104 43.2017 38.125 36.5 38.125C34.3968 38.125 32.3489 37.7515 30.3995 37.1116L36.3198 26.8565C36.3813 26.8583 36.4376 26.875 36.4991 26.875C36.5606 26.875 36.6178 26.8583 36.6784 26.8565L41.1687 34.6349C43.9136 33.8474 46.4035 32.3717 48.4294 30.3353L43.8775 22.4506C44.5323 21.2526 44.9375 19.8991 44.9375 18.4375C44.9375 13.7775 41.16 10 36.5 10C31.84 10 28.0625 13.7775 28.0625 18.4375C28.0625 19.8991 28.4677 21.2526 29.1216 22.4506L23.1187 32.8489C22.0156 31.8285 21.0128 30.6877 20.1585 29.4212C19.7375 28.7972 18.9307 28.5757 18.2794 28.9527L15.8404 30.3651C15.1505 30.7642 14.9062 31.6747 15.3447 32.34C16.7132 34.4178 18.3937 36.2257 20.2648 37.791L14 48.642L14.617 53.7616C14.7295 54.6924 15.7033 55.2549 16.5655 54.8866L21.3072 52.8616L27.5299 42.0836C30.3591 43.1594 33.3904 43.75 36.5 43.75C45.2056 43.75 53.2766 39.2667 57.9014 31.9604ZM36.5 15.625C38.053 15.625 39.3125 16.8845 39.3125 18.4375C39.3125 19.9905 38.053 21.25 36.5 21.25C34.947 21.25 33.6875 19.9905 33.6875 18.4375C33.6875 16.8845 34.947 15.625 36.5 15.625Z" fill="#041E85"/>
</g>
<defs>
<clipPath id="clip0">
<rect width="45" height="45" fill="white" transform="translate(14 10)"/>
</clipPath>
</defs>
</svg>
