<svg width="72" height="72" viewBox="0 0 72 72" fill="none" xmlns="http://www.w3.org/2000/svg">
<circle cx="36" cy="36" r="36" fill="#B4BDE1"/>
<g clip-path="url(#clip0)">
<path d="M32.5314 56.959L27.3845 55.4725C26.8445 55.3213 26.5407 54.7586 26.6926 54.2211L38.2098 14.7317C38.3617 14.1942 38.927 13.8918 39.467 14.043L44.6139 15.5295C45.1539 15.6807 45.4576 16.2434 45.3057 16.7809L33.7886 56.2704C33.6282 56.8079 33.0714 57.1186 32.5314 56.959V56.959ZM22.9126 47.536L26.5829 43.6391C26.9711 43.2276 26.9457 42.5725 26.5154 42.1946L18.8711 35.501L26.5154 28.8075C26.9457 28.4295 26.9795 27.7745 26.5829 27.3629L22.9126 23.4661C22.5329 23.0629 21.8917 23.0377 21.4782 23.4241L9.3198 34.762C8.88949 35.1567 8.88949 35.837 9.3198 36.2317L21.4782 47.578C21.8917 47.9643 22.5329 47.9475 22.9126 47.536V47.536ZM50.5201 47.5864L62.6786 36.2401C63.1089 35.8454 63.1089 35.1651 62.6786 34.7704L50.5201 23.4157C50.1151 23.0377 49.4739 23.0545 49.0857 23.4577L45.4154 27.3545C45.0273 27.7661 45.0526 28.4211 45.4829 28.7991L53.1273 35.501L45.4829 42.1946C45.0526 42.5725 45.0189 43.2276 45.4154 43.6391L49.0857 47.536C49.4654 47.9475 50.1067 47.9643 50.5201 47.5864V47.5864Z" fill="#041E85"/>
</g>
<defs>
<clipPath id="clip0">
<rect width="54" height="43" fill="white" transform="translate(9 14)"/>
</clipPath>
</defs>
</svg>
